<svg width="340" height="84" viewBox="0 0 340 84" fill="none" xmlns="http://www.w3.org/2000/svg" role="img" aria-labelledby="lacertaBatTitle lacertaBatDesc">
  <title id="lacertaBatTitle">Lacerta</title>
  <desc id="lacertaBatDesc">Premium symmetrical bat logo with Lacerta wordmark for dark header and footer.</desc>
  <defs>
    <linearGradient id="batBadge" x1="25" y1="12" x2="98" y2="75" gradientUnits="userSpaceOnUse">
      <stop offset="0" stop-color="#F8F3EA"/>
      <stop offset="0.42" stop-color="#F6C343"/>
      <stop offset="1" stop-color="#E8782E"/>
    </linearGradient>
    <linearGradient id="batWing" x1="8" y1="16" x2="61" y2="60" gradientUnits="userSpaceOnUse">
      <stop offset="0" stop-color="#3A2416"/>
      <stop offset="0.58" stop-color="#1A100B"/>
      <stop offset="1" stop-color="#24150D"/>
    </linearGradient>
    <filter id="batShadow" x="-30%" y="-30%" width="160%" height="180%">
      <feDropShadow dx="0" dy="8" stdDeviation="6" flood-color="#000000" flood-opacity="0.24"/>
    </filter>
  </defs>
  <g transform="translate(4 2)">
    <circle cx="58" cy="40" r="34" fill="url(#batBadge)"/>
    <path
      d="M69.5 11.5C80.9 16.6 88.9 27.8 88.9 40.8C88.9 56.4 77.8 69.5 62.9 72.5C71.5 65.7 77 55.4 77 44C77 31.2 70.4 20 60.4 13.4C63.2 12.2 66.3 11.5 69.5 11.5Z"
      fill="#FFFDF8"
      opacity="0.15"
    />
    <g filter="url(#batShadow)">
      <path
        d="M58 29.4
           C53 23.5 48.1 22 43.7 26.5
           C35.4 20.7 23.9 19.7 11.8 22.8
           C15.8 27 16.6 31.2 13.9 35.4
           C5.8 36 -1.8 39 -8.8 44
           C0.3 46.1 6.6 49.7 11.8 55
           C19.3 52.4 27.1 53.7 35.7 58.8
           C38.2 51.8 42.8 47.3 49.2 45.1
           C52.5 50.2 55.8 53.5 58 54.4
           Z"
        fill="url(#batWing)"
      />
      <path
        d="M43.7 26.5C39.2 33.4 37.3 41.8 35.7 58.8"
        stroke="#F6C343"
        stroke-width="1.9"
        stroke-linecap="round"
        opacity="0.36"
      />
      <path
        d="M13.9 35.4C22.1 40.3 28.8 47.9 35.7 58.8"
        stroke="#F8F3EA"
        stroke-width="1.45"
        stroke-linecap="round"
        opacity="0.22"
      />
    </g>
    <g transform="translate(116 0) scale(-1 1)" filter="url(#batShadow)">
      <path
        d="M58 29.4
           C53 23.5 48.1 22 43.7 26.5
           C35.4 20.7 23.9 19.7 11.8 22.8
           C15.8 27 16.6 31.2 13.9 35.4
           C5.8 36 -1.8 39 -8.8 44
           C0.3 46.1 6.6 49.7 11.8 55
           C19.3 52.4 27.1 53.7 35.7 58.8
           C38.2 51.8 42.8 47.3 49.2 45.1
           C52.5 50.2 55.8 53.5 58 54.4
           Z"
        fill="url(#batWing)"
      />
      <path
        d="M43.7 26.5C39.2 33.4 37.3 41.8 35.7 58.8"
        stroke="#F6C343"
        stroke-width="1.9"
        stroke-linecap="round"
        opacity="0.36"
      />
      <path
        d="M13.9 35.4C22.1 40.3 28.8 47.9 35.7 58.8"
        stroke="#F8F3EA"
        stroke-width="1.45"
        stroke-linecap="round"
        opacity="0.22"
      />
    </g>
    <path
      d="M58 23.7
         C64.2 30 67 39 66 49.8
         C65.1 58.4 62.4 64.7 58 69.7
         C53.6 64.7 50.9 58.4 50 49.8
         C49 39 51.8 30 58 23.7Z"
      fill="#1A100B"
    />
    <path
      d="M50.7 27.6
         L53.6 18.6
         L58 24.4
         L62.4 18.6
         L65.3 27.6
         C63.7 32.5 61.2 35 58 35
         C54.8 35 52.3 32.5 50.7 27.6Z"
      fill="#24150D"
    />
    <circle cx="56.1" cy="27.7" r="1.65" fill="#F6C343"/>
    <circle cx="59.9" cy="27.7" r="1.65" fill="#F6C343"/>
    <path
      d="M54.8 49.4C55.6 54.4 56.7 57.9 58 60.4C59.3 57.9 60.4 54.4 61.2 49.4"
      stroke="#E8782E"
      stroke-width="1.9"
      stroke-linecap="round"
      opacity="0.74"
    />
  </g>
  <g>
    <text
      x="128"
      y="37"
      fill="#FFFDF8"
      font-family="Sora, Space Grotesk, Arial, sans-serif"
      font-size="32"
      font-weight="800"
      letter-spacing="0"
    >
      Lacerta
    </text>
    <text
      x="129"
      y="58"
      fill="#E7D2A5"
      font-family="Inter, Manrope, Arial, sans-serif"
      font-size="8.8"
      font-weight="700"
      letter-spacing="1.45"
    >
      INDEPENDENT MATCHING PLATFORM
    </text>
  </g>
</svg>
